<?xml version="1.0" encoding="UTF-8" standalone="no"?>
<svg
   height="16"
   viewBox="0 0 16 16"
   width="16"
   version="1.1"
   id="svg4"
   sodipodi:docname="TileData3D.svg"
   inkscape:version="1.1.1 (3bf5ae0d25, 2021-09-20)"
   xmlns:inkscape="http://www.inkscape.org/namespaces/inkscape"
   xmlns:sodipodi="http://sodipodi.sourceforge.net/DTD/sodipodi-0.dtd"
   xmlns="http://www.w3.org/2000/svg"
   xmlns:svg="http://www.w3.org/2000/svg">
  <defs
     id="defs8">
    <inkscape:perspective
       sodipodi:type="inkscape:persp3d"
       inkscape:vp_x="0 : 8 : 1"
       inkscape:vp_y="0 : 1000 : 0"
       inkscape:vp_z="16 : 8 : 1"
       inkscape:persp3d-origin="8 : 5.3333333 : 1"
       id="perspective168" />
  </defs>
  <sodipodi:namedview
     id="namedview6"
     pagecolor="#505050"
     bordercolor="#eeeeee"
     borderopacity="1"
     inkscape:pageshadow="0"
     inkscape:pageopacity="0"
     inkscape:pagecheckerboard="0"
     showgrid="false"
     inkscape:zoom="1.7788155"
     inkscape:cx="40.757459"
     inkscape:cy="-21.924702"
     inkscape:window-width="1920"
     inkscape:window-height="1019"
     inkscape:window-x="0"
     inkscape:window-y="0"
     inkscape:window-maximized="1"
     inkscape:current-layer="svg4"
     inkscape:snap-global="false" />
  <path
     id="path2122"
     style="fill:#ffca5f;fill-opacity:1;stroke:none;stroke-width:0.761383;stroke-linecap:round;stroke-linejoin:round;stroke-miterlimit:4;stroke-dasharray:none;stroke-opacity:1"
     d="M 8.0002315,2.1801249 5.3074224,4.8124703 V 5.6996144 L 8.0002315,8.3319598 10.69304,5.6996144 V 4.8124703 Z M 3.7617188,3.4179688 c -0.1650994,1.185e-4 -0.3154833,0.097336 -0.3867188,0.25 l -2.3339844,5.03125 C 1.0140253,8.757855 1.000019,8.8218838 1,8.8867188 V 13.904297 C 1,14.503745 1.4835305,15 2.0683594,15 H 13.931641 C 14.516471,15 15,14.503746 15,13.904297 V 8.8867188 c -2e-5,-0.064835 -0.01403,-0.1288641 -0.04102,-0.1875 L 12.625,3.6679688 c -0.07124,-0.1526636 -0.22162,-0.2498815 -0.386719,-0.25 h -0.763672 -1.113281 l 0.900391,0.8789062 h 0.240234 0.464844 l 1.824219,3.9335938 H 10.033203 A 2.032547,1.7414548 0 0 1 8,9.9726562 2.032547,1.7414548 0 0 1 5.9667969,8.2304688 H 2.2089844 L 4.0332031,4.296875 H 4.4980469 4.7382812 L 5.6386719,3.4179688 H 4.53125 Z" />
</svg>
