<?xml version="1.0" encoding="UTF-8" standalone="no"?>
<svg
   height="16"
   viewBox="0 0 16 16"
   width="16"
   version="1.1"
   id="svg4"
   sodipodi:docname="wand.svg"
   inkscape:version="1.1.1 (3bf5ae0d25, 2021-09-20)"
   xmlns:inkscape="http://www.inkscape.org/namespaces/inkscape"
   xmlns:sodipodi="http://sodipodi.sourceforge.net/DTD/sodipodi-0.dtd"
   xmlns="http://www.w3.org/2000/svg"
   xmlns:svg="http://www.w3.org/2000/svg">
  <defs
     id="defs8" />
  <sodipodi:namedview
     id="namedview6"
     pagecolor="#505050"
     bordercolor="#eeeeee"
     borderopacity="1"
     inkscape:pageshadow="0"
     inkscape:pageopacity="0"
     inkscape:pagecheckerboard="0"
     showgrid="false"
     inkscape:snap-smooth-nodes="true"
     inkscape:zoom="3.557631"
     inkscape:cx="-13.492124"
     inkscape:cy="1.6865155"
     inkscape:window-width="1920"
     inkscape:window-height="1019"
     inkscape:window-x="0"
     inkscape:window-y="0"
     inkscape:window-maximized="1"
     inkscape:current-layer="svg4" />
  <path
     id="path9034"
     style="fill:#e0e0e0;fill-opacity:0.996078;stroke-width:1.92135;stroke-linecap:round;stroke-linejoin:round"
     d="m 13.790923,8.9522638 c -0.071,0 -0.385816,-0.6733132 -0.436023,-0.7200796 -0.05021,-0.046767 -0.773054,-0.340006 -0.773054,-0.4061437 0,-0.066137 0.722847,-0.3593772 0.773054,-0.4061436 0.05021,-0.046767 0.36502,-0.7200797 0.436023,-0.7200797 0.071,-6e-7 0.385816,0.6733132 0.436023,0.7200797 C 14.277156,7.4666639 15,7.7599028 15,7.8260405 c 0,0.066137 -0.722848,0.3593773 -0.773054,0.4061437 -0.05021,0.046767 -0.36502,0.7200796 -0.436023,0.7200796 z M 5.9737739,3.3097417 C 5.9227566,3.3097416 5.6965571,2.8259519 5.6604824,2.7923492 5.6244075,2.7587464 5.1050266,2.5480477 5.1050266,2.5005264 c 0,-0.047521 0.5193811,-0.2582203 0.5554558,-0.2918229 0.036075,-0.033603 0.2622741,-0.5173924 0.3132916,-0.5173924 0.051018,-7e-7 0.2772167,0.4837897 0.3132914,0.5173924 0.036075,0.033603 0.5554558,0.2443015 0.5554558,0.2918228 0,0.047521 -0.5193811,0.2582203 -0.5554558,0.2918229 -0.036075,0.033602 -0.2622741,0.5173925 -0.3132915,0.5173925 z m 1.3971963,1.8769539 c -0.050866,0 -0.2763915,-0.4823494 -0.3123588,-0.515852 -0.035967,-0.033503 -0.5538018,-0.2435742 -0.5538018,-0.290954 0,-0.047379 0.5178345,-0.2574513 0.5538018,-0.2909539 0.035968,-0.033503 0.2614933,-0.515852 0.3123588,-0.515852 0.050866,-7e-7 0.2763913,0.4823494 0.3123587,0.515852 0.035968,0.033503 0.5538019,0.243574 0.5538019,0.2909539 0,0.047379 -0.5178346,0.2574514 -0.5538019,0.290954 -0.035968,0.033503 -0.2614932,0.515852 -0.3123587,0.515852 z m 1.8178655,-1.934249 c -0.071003,0 -0.3858158,-0.6733131 -0.4360227,-0.7200795 C 8.702606,2.4856001 7.9797589,2.192361 7.9797589,2.1262233 7.9797589,2.0600863 8.7026061,1.766846 8.752813,1.7200796 8.80302,1.6733126 9.1178324,1 9.1888357,1 c 0.071003,-6.9e-7 0.3858158,0.6733133 0.4360227,0.7200797 0.05021,0.046767 0.7730536,0.3400059 0.7730536,0.4061436 0,0.066137 -0.7228466,0.3593773 -0.7730536,0.4061438 C 9.5746514,2.579134 9.259839,3.2524466 9.1888357,3.2524466 Z M 13.053771,1.950894 c -0.440035,0 -0.880997,0.1592804 -1.216746,0.477304 L 1.5035908,12.217537 c -0.67145439,0.636141 -0.67145439,1.669292 -1e-7,2.305435 0.6714955,0.636027 1.7600178,0.636047 2.4315129,0 L 14.268539,4.7317889 c 0.671453,-0.6361419 0.671453,-1.6674488 0,-2.3035909 C 13.932801,2.1101743 13.493806,1.950894 13.053771,1.950894 Z m -0.03759,0.2764309 c 0.37617,0 0.753654,0.1372503 1.040664,0.4091179 0.574004,0.5438145 0.574003,1.4243724 0,1.9681879 L 12.584879,5.9996854 10.50553,4.0314973 11.977495,2.6364428 c 0.287019,-0.2718676 0.662516,-0.4091179 1.038686,-0.4091179 z" />
</svg>
